<svg xmlns="http://www.w3.org/2000/svg" data-name="Layer 1" viewBox="0 0 100 125" x="0px" y="0px"><title>144all</title><path d="M89.83,91.6a1,1,0,0,0-.28-1.39,18,18,0,0,1-3.5-3.37c-2.18-2.5-4.65-5.34-9.46-5.34s-7.28,2.84-9.46,5.34-4.05,4.66-7.95,4.66-5.86-2.26-7.95-4.66S46.6,81.5,41.79,81.5s-7.28,2.84-9.45,5.34-4.05,4.66-7.95,4.66-5.86-2.26-7.94-4.66a16.36,16.36,0,0,0-5-4.36,1,1,0,1,0-.88,1.8,14.63,14.63,0,0,1,4.38,3.88c2.18,2.5,4.65,5.34,9.45,5.34s7.27-2.84,9.45-5.34,4.05-4.66,7.95-4.66,5.86,2.26,7.95,4.66,4.65,5.34,9.45,5.34,7.28-2.84,9.46-5.34S72.7,83.5,76.6,83.5s5.86,2.26,7.95,4.66a19.79,19.79,0,0,0,3.9,3.73A1,1,0,0,0,89.83,91.6Z"/><path d="M16.45,69.84a16.36,16.36,0,0,0-5-4.36,1,1,0,0,0-.88,1.8,14.63,14.63,0,0,1,4.38,3.88c2.18,2.5,4.65,5.34,9.45,5.34s7.27-2.84,9.45-5.34,4.05-4.66,7.95-4.66,5.86,2.26,7.95,4.66,4.65,5.34,9.45,5.34,7.28-2.84,9.46-5.34S72.7,66.5,76.6,66.5s5.86,2.26,7.95,4.66a19.78,19.78,0,0,0,3.9,3.73,1,1,0,0,0,1.1-1.67,18,18,0,0,1-3.5-3.37c-2.18-2.5-4.65-5.34-9.46-5.34s-7.28,2.84-9.46,5.34-4.05,4.66-7.95,4.66-5.86-2.26-7.95-4.66S46.6,64.5,41.79,64.5s-7.28,2.84-9.45,5.34-4.05,4.66-7.95,4.66S18.53,72.24,16.45,69.84Z"/><path d="M25.7,57.1l.07.08.13.11.08.06.17.08.08,0a1,1,0,0,0,.27,0h0c18.52,0,30.61-4.7,35.94-14C71,28.7,59,7.88,58.53,7a1,1,0,0,0-.86-.5h0a1,1,0,0,0-.86.53c-.06.11-6.27,11.38-22.71,19.17-6.39,3-10.39,7.25-11.87,12.56-2.54,9.08,3.2,17.92,3.45,18.3ZM24.14,39.28c1.32-4.72,5-8.51,10.8-11.28C48.51,21.57,55.28,13,57.6,9.51c2.53,5,9.8,21.37,3.09,33C56.19,50.38,46.21,54.69,31,55.39a62.44,62.44,0,0,0,9-5.9c8.7-6.9,13.3-14.95,13.3-23.28a1,1,0,1,0-2,0c0,16.81-20.18,27-24.43,29C25.65,53,22.23,46.09,24.14,39.28Z"/></svg>